<?xml version="1.0" encoding="UTF-8"?>
<svg id="Layer_1" data-name="Layer 1" xmlns="http://www.w3.org/2000/svg" viewBox="0 0 986.96 1378.79">
  <defs>
    <style>
      .cls-1 {
        fill: #f2920f;
      }

      .cls-2 {
        fill: #007c7b;
      }

      .cls-3 {
        fill: #122eae;
      }
    </style>
  </defs>
  <path class="cls-1" d="M734.89,341.25c-5.43-17.1-20.27-31.05-36.94-34.72-14.74-3.24-28.98,1.7-40.12,13.89l-204.61,224.1-93.25-92.33c-12.17-12.05-27.43-16.34-42.97-12.1-16.98,4.64-31.38,19.14-35.83,36.07-4.04,15.38.39,30.44,12.48,42.4l128.08,126.81c8.73,8.64,21.03,13.53,33.93,13.53.43,0,.86,0,1.29-.02,12.38-.31,23.47-5.16,31.23-13.66l236.23-258.73c11.88-13.02,15.61-29.09,10.47-45.26ZM718.68,381.27l-236.23,258.73c-6.32,6.92-15.44,10.87-25.68,11.13-11.09.25-22.15-3.93-29.56-11.27l-128.08-126.81c-10.03-9.93-13.73-22.33-10.43-34.91,3.76-14.33,15.96-26.61,30.36-30.54,3.17-.87,6.33-1.3,9.45-1.3,9.41,0,18.4,3.9,26,11.42l99,98.02,210.07-230.08c11.78-12.9,24.29-13.39,32.71-11.54,14.04,3.09,26.58,14.93,31.2,29.48,4.26,13.41,1.13,26.79-8.8,37.67Z"/>
  <g>
    <path class="cls-2" d="M493.48,0C221.37,0,0,221.37,0,493.48c0,80.42,19.89,160.26,57.57,230.99,4.21,8.74,42.89,88.21,104.93,185.07,84.12,131.33,170.28,232.53,256.09,300.77,21.63,17.16,48.13,25.74,74.64,25.74s53.02-8.58,74.65-25.75c188.06-149.52,329.98-423.3,356.52-476.66l.21-.5s.01-.03.02-.04l.07.04c40.73-72.93,62.25-155.81,62.25-239.67C986.96,221.37,765.58,0,493.48,0ZM918.03,729.15l-.08-.03-.05.13h-.03c-.19.35-.37.71-.53,1.14-26.66,53.57-167.76,325.52-354.3,473.83-40.45,32.1-99.17,32.1-139.62,0-83.93-66.76-171.9-170.1-254.38-298.88-61.8-96.48-100.29-175.55-104.47-184.25l-.19-.38C27.35,651.21,7.77,572.63,7.77,493.48,7.77,225.66,225.66,7.77,493.48,7.77s485.71,217.89,485.71,485.71c0,82.46-21.14,163.94-61.15,235.67Z"/>
    <path class="cls-2" d="M493.57,124.19c-203.57,0-369.19,165.62-369.19,369.19s165.62,369.19,369.19,369.19,369.19-165.62,369.19-369.19S697.15,124.19,493.57,124.19ZM493.57,854.8c-199.29,0-361.42-162.13-361.42-361.42S294.29,131.96,493.57,131.96s361.42,162.13,361.42,361.42-162.13,361.42-361.42,361.42Z"/>
  </g>
  <path class="cls-3" d="M768.51,1284.97H218.44c-29.84,0-45.45,23.61-45.45,46.93s15.61,46.88,45.45,46.88h550.07c29.84,0,45.44-23.61,45.44-46.93s-15.61-46.88-45.44-46.88ZM768.51,1371.01H218.44c-25.88,0-37.67-20.27-37.67-39.11s11.79-39.16,37.67-39.16h550.07c25.88,0,37.67,20.27,37.67,39.11s-11.79,39.16-37.67,39.16Z"/>
</svg>