<?xml version="1.0" encoding="UTF-8"?>
<svg id="Layer_1" xmlns="http://www.w3.org/2000/svg" version="1.1" viewBox="0 0 1500 589.3">
  <!-- Generator: Adobe Illustrator 30.1.0, SVG Export Plug-In . SVG Version: 2.1.1 Build 136)  -->
  <defs>
    <style>
      .st0 {
        fill: #f2920f;
      }

      .st1 {
        fill: #007c7b;
      }

      .st2 {
        fill: #092148;
      }

      .st3 {
        fill: #b2b2b2;
      }

      .st4 {
        fill: #122eae;
      }
    </style>
  </defs>
  <path class="st0" d="M210.9,227.6c16.5,16.3,33,32.6,49.4,48.9,6.2,6.1,17.4,6.7,23.5,0,30.4-33.3,60.8-66.6,91.2-99.9,14.4-15.8-9-39.3-23.5-23.5-30.4,33.3-60.8,66.6-91.2,99.9h23.5c-16.5-16.3-33-32.6-49.4-48.9-15.2-15.1-38.7,8.4-23.5,23.5h0Z"/>
  <path class="st1" d="M476,218.9c0-104.2-84.8-189-189-189S98,114.7,98,218.9s8,62,22,88.4c.3.5,58.6,123.1,139,187.1,16.3,12.9,39.5,12.9,55.8,0,72.4-57.6,126.9-162.7,137.2-183.5,0-.2.2-.4.3-.6v.3c15.1-27.2,23.7-58.5,23.7-91.8ZM287,359.9c-77.9,0-141-63.1-141-141s63.1-141,141-141,141,63.1,141,141-63.1,141-141,141Z"/>
  <path class="st4" d="M180.9,559.2h212.3c21.4,0,21.4-33.2,0-33.2h-212.3c-21.4,0-21.4,33.2,0,33.2h0Z"/>
  <rect class="st3" x="565.7" y="91.2" width="3" height="434.7"/>
  <path class="st2" d="M730.3,280.4l-29.6-51.4h-16.1v51.4h-21.1v-128.6h44.4c9.9,0,18.2,1.7,25.1,5.2,6.8,3.5,12,8.1,15.4,13.9,3.4,5.8,5.1,12.3,5.1,19.4s-2.4,16-7.3,22.8c-4.9,6.8-12.4,11.5-22.5,14l31.8,53.3h-25.2ZM684.6,212.1h23.3c7.9,0,13.8-2,17.8-5.9,4-3.9,6-9.2,6-15.9s-2-11.9-5.9-15.6c-3.9-3.8-9.9-5.6-17.9-5.6h-23.3v43.1Z"/>
  <path class="st2" d="M873.2,237.3h-77.9c.6,8.1,3.6,14.7,9.1,19.6,5.4,4.9,12.1,7.4,20,7.4,11.3,0,19.4-4.7,24.1-14.2h22.8c-3.1,9.4-8.7,17.1-16.7,23-8.1,6-18.1,9-30.1,9s-18.5-2.2-26.2-6.6c-7.7-4.4-13.8-10.5-18.1-18.5s-6.6-17.2-6.6-27.7,2.1-19.7,6.4-27.7,10.2-14.1,17.9-18.4c7.7-4.3,16.6-6.5,26.5-6.5s18.2,2.1,25.7,6.3c7.5,4.2,13.4,10.1,17.6,17.7s6.3,16.3,6.3,26.2-.3,7.3-.7,10.4ZM851.9,220.2c-.1-7.8-2.9-14-8.3-18.7-5.4-4.7-12.2-7-20.2-7s-13.5,2.3-18.7,6.9c-5.2,4.6-8.3,10.9-9.2,18.8h56.4Z"/>
  <path class="st2" d="M894,201.7c4.3-7.9,10-14,17.4-18.4,7.3-4.4,15.5-6.6,24.5-6.6s14.9,1.6,21,4.8c6.1,3.2,10.8,7.1,14.1,11.7v-14.8h21.3v150.4h-21.3v-63.3c-3.3,4.6-8.1,8.4-14.4,11.7-6.3,3.2-13.4,4.8-21.5,4.8s-16.7-2.2-24-6.8c-7.2-4.5-12.9-10.8-17.2-18.9-4.3-8.1-6.4-17.2-6.4-27.5s2.1-19.3,6.4-27.2ZM966.7,211c-2.9-5.2-6.7-9.1-11.4-11.8-4.7-2.7-9.7-4.1-15.2-4.1s-10.5,1.3-15.2,4c-4.7,2.7-8.5,6.5-11.4,11.7-2.9,5.1-4.3,11.2-4.3,18.2s1.4,13.2,4.3,18.5c2.9,5.3,6.7,9.3,11.5,12.1,4.7,2.8,9.8,4.2,15.1,4.2s10.5-1.4,15.2-4.1c4.7-2.7,8.5-6.7,11.4-11.9,2.9-5.2,4.3-11.4,4.3-18.4s-1.5-13.1-4.3-18.3Z"/>
  <path class="st2" d="M1112.3,178.4v101.9h-21.1v-12c-3.3,4.2-7.7,7.5-13,9.9-5.4,2.4-11.1,3.6-17.1,3.6s-15.2-1.7-21.6-5c-6.4-3.3-11.4-8.3-15-14.8-3.6-6.5-5.5-14.4-5.5-23.7v-59.9h20.9v56.8c0,9.1,2.3,16.1,6.8,21,4.6,4.9,10.8,7.3,18.7,7.3s14.1-2.4,18.8-7.3c4.6-4.9,6.9-11.9,6.9-21v-56.8h21.1Z"/>
  <path class="st2" d="M1232.8,237.3h-77.9c.6,8.1,3.6,14.7,9.1,19.6,5.4,4.9,12.1,7.4,20,7.4,11.3,0,19.4-4.7,24.1-14.2h22.8c-3.1,9.4-8.7,17.1-16.7,23-8.1,6-18.1,9-30.1,9s-18.5-2.2-26.2-6.6c-7.7-4.4-13.8-10.5-18.1-18.5-4.4-8-6.6-17.2-6.6-27.7s2.1-19.7,6.4-27.7c4.3-8,10.2-14.1,17.9-18.4,7.7-4.3,16.6-6.5,26.5-6.5s18.2,2.1,25.7,6.3c7.5,4.2,13.4,10.1,17.6,17.7,4.2,7.6,6.3,16.3,6.3,26.2s-.3,7.3-.7,10.4ZM1211.5,220.2c-.1-7.8-2.9-14-8.3-18.7-5.4-4.7-12.2-7-20.2-7s-13.5,2.3-18.7,6.9c-5.2,4.6-8.3,10.9-9.2,18.8h56.4Z"/>
  <path class="st2" d="M1269.7,277.7c-6.4-2.9-11.4-6.8-15.1-11.8-3.7-5-5.7-10.6-5.9-16.7h21.8c.4,4.3,2.4,7.9,6.2,10.8,3.8,2.9,8.5,4.3,14.1,4.3s10.5-1.1,13.8-3.4c3.3-2.3,4.9-5.2,4.9-8.8s-1.8-6.7-5.5-8.5c-3.6-1.9-9.4-3.9-17.3-6.1-7.7-2.1-13.9-4.1-18.7-6.1-4.8-2-9-5-12.5-9.1-3.5-4.1-5.3-9.4-5.3-16.1s1.6-10.4,4.8-14.9c3.2-4.5,7.8-8,13.8-10.6,6-2.6,12.9-3.9,20.6-3.9,11.6,0,20.9,2.9,28,8.8,7.1,5.9,10.9,13.8,11.4,24h-21.1c-.4-4.6-2.2-8.2-5.6-10.9-3.3-2.7-7.8-4.1-13.5-4.1s-9.8,1-12.8,3.1c-3,2.1-4.4,4.9-4.4,8.3s1,5,3,6.8c2,1.9,4.4,3.3,7.2,4.3,2.8,1,7,2.4,12.6,4,7.4,2,13.5,4,18.2,6,4.7,2,8.8,5,12.3,9,3.4,3.9,5.2,9.2,5.4,15.7,0,5.8-1.6,11-4.8,15.5-3.2,4.6-7.7,8.1-13.6,10.7-5.9,2.6-12.7,3.9-20.6,3.9s-15.2-1.5-21.6-4.3Z"/>
  <path class="st2" d="M1377.6,195.6v56.4c0,3.8.9,6.6,2.7,8.2,1.8,1.7,4.8,2.5,9.2,2.5h12.9v17.6h-16.6c-9.5,0-16.8-2.2-21.8-6.7-5.1-4.4-7.6-11.7-7.6-21.6v-56.4h-12v-17.2h12v-25.3h21.3v25.3h24.8v17.2h-24.8Z"/>
  <path class="st2" d="M897.7,477.6l-29.6-51.4h-16.1v51.4h-21.1v-128.6h44.4c9.9,0,18.2,1.7,25.1,5.2,6.8,3.5,12,8.1,15.3,13.9,3.4,5.8,5.1,12.3,5.1,19.4s-2.4,16-7.3,22.8c-4.9,6.8-12.4,11.5-22.5,14l31.8,53.3h-25.2ZM852,409.4h23.3c7.9,0,13.8-2,17.9-5.9,4-3.9,6-9.2,6-15.9s-2-11.9-5.9-15.6c-4-3.8-9.9-5.6-17.9-5.6h-23.3v43.1Z"/>
  <path class="st2" d="M948.9,358.3c-2.6-2.6-3.9-5.8-3.9-9.6s1.3-7,3.9-9.6c2.6-2.6,5.8-3.9,9.6-3.9s6.8,1.3,9.4,3.9c2.6,2.6,3.9,5.8,3.9,9.6s-1.3,7-3.9,9.6-5.7,3.9-9.4,3.9-7-1.3-9.6-3.9ZM968.9,375.7v101.9h-21.1v-101.9h21.1Z"/>
  <path class="st2" d="M996,399c4.3-7.9,10-14,17.4-18.4,7.3-4.4,15.5-6.6,24.5-6.6s13.2,1.5,19.7,4.3c6.5,2.9,11.6,6.7,15.4,11.6v-49.2h21.3v136.9h-21.3v-15.4c-3.5,4.9-8.2,9-14.3,12.2-6.1,3.2-13.1,4.8-21,4.8s-17-2.2-24.3-6.8c-7.3-4.5-13.1-10.8-17.4-18.9-4.3-8.1-6.4-17.2-6.4-27.5s2.1-19.3,6.4-27.2ZM1068.7,408.3c-2.9-5.2-6.7-9.1-11.4-11.8-4.7-2.7-9.7-4.1-15.2-4.1s-10.5,1.3-15.2,4c-4.7,2.7-8.5,6.5-11.4,11.7-2.9,5.1-4.3,11.2-4.3,18.2s1.4,13.2,4.3,18.5c2.9,5.3,6.7,9.3,11.5,12.1,4.7,2.8,9.8,4.2,15.1,4.2s10.5-1.4,15.2-4.1c4.7-2.7,8.5-6.7,11.4-11.9,2.9-5.2,4.3-11.4,4.3-18.4s-1.5-13.1-4.3-18.3Z"/>
  <path class="st2" d="M1214.7,434.5h-77.9c.6,8.1,3.6,14.7,9.1,19.6,5.4,4.9,12.1,7.4,20,7.4,11.3,0,19.4-4.7,24.1-14.2h22.8c-3.1,9.4-8.7,17.1-16.7,23-8.1,6-18.1,9-30.1,9s-18.5-2.2-26.2-6.6c-7.7-4.4-13.8-10.5-18.1-18.5-4.4-8-6.6-17.2-6.6-27.7s2.1-19.7,6.4-27.7c4.3-8,10.2-14.1,17.9-18.4,7.7-4.3,16.6-6.5,26.5-6.5s18.2,2.1,25.7,6.3c7.5,4.2,13.4,10.1,17.6,17.7,4.2,7.6,6.3,16.3,6.3,26.2s-.3,7.3-.7,10.4ZM1193.5,417.5c-.1-7.8-2.9-14-8.3-18.7-5.4-4.7-12.2-7-20.2-7s-13.5,2.3-18.7,6.9c-5.2,4.6-8.3,10.9-9.2,18.8h56.4Z"/>
  <path class="st2" d="M712.6,371.7c-32.4-3.1-51.1,18.4-51.8,19.4l17.6,11.8c.4-.6,9.9-13.8,29.3-12,11.5,1.1,16.9,7.5,18.5,24.1-8-1.2-61.8-7.9-68,24.3-6.6,34.1,36.2,54.3,68.6,22v13.9h21.2v-46.6c0-16.5,2.9-53.4-35.3-57ZM680,445.8c-2.6-21.5,34.9-17.5,46.7-15.7v17.5c-14.7,14.2-44,19.8-46.7-1.9Z"/>
</svg>