<?xml version="1.0" encoding="UTF-8"?>
<svg id="Layer_1" xmlns="http://www.w3.org/2000/svg" version="1.1" viewBox="0 0 489.1 650.2">
  <!-- Generator: Adobe Illustrator 30.1.0, SVG Export Plug-In . SVG Version: 2.1.1 Build 136)  -->
  <defs>
    <style>
      .st0 {
        stroke: #f2920f;
      }

      .st0, .st1, .st2 {
        fill: none;
        stroke-miterlimit: 10;
        stroke-width: 3px;
      }

      .st1 {
        stroke: #122eae;
      }

      .st2 {
        stroke: #007c7b;
      }
    </style>
  </defs>
  <path class="st0" d="M298.9,187.4c-26,28.4-51.9,56.9-77.9,85.3-12-11.9-24.1-23.8-36.1-35.8-14.8-14.7-37.7,8.2-22.9,22.9,16,15.9,32.1,31.8,48.1,47.6,6,5.9,16.9,6.5,22.9,0l88.7-97.2c14-15.3-8.8-38.3-22.9-22.9Z"/>
  <path class="st2" d="M420,251.4c0-101.4-82.5-183.9-183.9-183.9S52.2,150,52.2,251.4s7.8,60.4,21.4,86.1c.3.5,57,119.9,135.3,182.1,15.8,12.6,38.4,12.6,54.3,0,70.5-56,123.5-158.4,133.5-178.6,0-.2.2-.4.3-.5v.3c14.7-26.4,23.1-56.9,23.1-89.3ZM236.1,388.6c-75.8,0-137.2-61.4-137.2-137.2s61.5-137.2,137.2-137.2,137.2,61.5,137.2,137.2-61.5,137.2-137.2,137.2Z"/>
  <path class="st1" d="M132.8,582.5h206.6c20.8,0,20.8-32.3,0-32.3h-206.6c-20.8,0-20.8,32.3,0,32.3h0Z"/>
</svg>
