<?xml version="1.0" encoding="UTF-8"?>
<svg id="Layer_1" xmlns="http://www.w3.org/2000/svg" version="1.1" viewBox="0 0 1500 1500">
  <!-- Generator: Adobe Illustrator 30.1.0, SVG Export Plug-In . SVG Version: 2.1.1 Build 136)  -->
  <defs>
    <style>
      .st0 {
        stroke: #0928b1;
      }

      .st0, .st1 {
        fill: none;
        stroke-miterlimit: 10;
        stroke-width: 3px;
      }

      .st1 {
        stroke: #007c7b;
      }
    </style>
  </defs>
  <path class="st0" d="M864.8,648.1c54.7-102.8,176.5-153.5,271.5-66.3,87.3,80,89.2,224.7,15.7,314-44,53.5-98.9,101.1-147.3,150.5-40.2,41-80.4,82-120.6,123-41.1,42-80.7,104.6-140.5,104.6s-99.4-62.6-140.5-104.6c-37-37.7-74-75.5-111.1-113.3-51.6-52.7-110-103.3-157-160.3-70.8-85.9-72.4-225,7.6-306.3,93.9-95.5,222.3-48.9,279.6,58.7,32.2,60.4,123.9,6.8,91.7-53.6-106.6-200.2-380.3-220.7-495.3-14.6-56.4,100.9-56.1,228.9-1.5,330.3,45.7,84.9,133.2,153.1,199.7,221,47.4,48.4,94.8,96.7,142.3,145.1,43.2,44.1,84.4,99.6,147.1,114.9,123.9,30.3,209.3-102.2,284.1-178.5,149.2-152.1,373.2-310.5,309.6-554.1-68.5-262.4-399.8-302.6-526.9-64-32.1,60.3,59.5,114.1,91.7,53.6h0Z"/>
  <circle class="st0" cx="423.5" cy="228" r="132.6"/>
  <circle class="st1" cx="743.5" cy="905.5" r="132.6"/>
  <circle class="st0" cx="1054.8" cy="228" r="132.6"/>
</svg>
