<?xml version="1.0" encoding="UTF-8"?>
<svg id="Layer_1" xmlns="http://www.w3.org/2000/svg" version="1.1" viewBox="0 0 1500 780.6">
  <!-- Generator: Adobe Illustrator 30.1.0, SVG Export Plug-In . SVG Version: 2.1.1 Build 136)  -->
  <defs>
    <style>
      .st0 {
        fill: #0928b1;
      }

      .st1 {
        fill: #007c7b;
      }

      .st2 {
        fill: #092148;
      }

      .st3 {
        fill: #b2b2b2;
      }
    </style>
  </defs>
  <path class="st0" d="M324.5,354.4c18.6-35,60.1-52.2,92.4-22.6,29.7,27.2,30.4,76.5,5.3,106.9-15,18.2-33.7,34.4-50.2,51.2-13.7,14-27.4,27.9-41,41.9-14,14.3-27.5,35.6-47.8,35.6s-33.8-21.3-47.8-35.6c-12.6-12.9-25.2-25.7-37.8-38.6-17.6-17.9-37.5-35.2-53.5-54.6-24.1-29.3-24.7-76.6,2.6-104.3,32-32.5,75.7-16.6,95.2,20,10.9,20.6,42.2,2.3,31.2-18.3-36.3-68.2-129.5-75.1-168.6-5-19.2,34.4-19.1,77.9-.5,112.5,15.6,28.9,45.3,52.1,68,75.2,16.1,16.5,32.3,32.9,48.4,49.4,14.7,15,28.8,33.9,50.1,39.1,42.2,10.3,71.3-34.8,96.7-60.8,50.8-51.8,127.1-105.7,105.4-188.7-23.3-89.3-136.1-103-179.4-21.8-10.9,20.5,20.3,38.8,31.2,18.3h0Z"/>
  <circle class="st0" cx="174.3" cy="211.3" r="45.1"/>
  <circle class="st1" cx="283.2" cy="442" r="45.1"/>
  <circle class="st0" cx="389.2" cy="211.3" r="45.1"/>
  <rect class="st3" x="567.9" y="166.2" width="3" height="439.2"/>
  <path class="st2" d="M734.3,357.3l-29.9-52h-16.3v52h-21.3v-129.9h44.9c10,0,18.4,1.7,25.3,5.2,6.9,3.5,12.1,8.2,15.5,14,3.4,5.9,5.1,12.4,5.1,19.6s-2.5,16.2-7.4,23.1c-4.9,6.9-12.5,11.6-22.7,14.1l32.1,53.8h-25.4ZM688.1,288.4h23.6c8,0,14-2,18-6,4-4,6.1-9.3,6.1-16.1s-2-12-6-15.8c-4-3.8-10-5.7-18.1-5.7h-23.6v43.5Z"/>
  <path class="st2" d="M878.5,313.8h-78.7c.6,8.2,3.7,14.8,9.2,19.8,5.5,5,12.2,7.5,20.2,7.5,11.5,0,19.6-4.8,24.3-14.4h23c-3.1,9.5-8.8,17.2-16.9,23.3-8.2,6-18.3,9.1-30.4,9.1s-18.7-2.2-26.4-6.6c-7.8-4.4-13.9-10.7-18.3-18.7-4.4-8-6.6-17.4-6.6-27.9s2.1-19.9,6.4-27.9c4.3-8,10.3-14.2,18.1-18.6,7.8-4.4,16.7-6.5,26.8-6.5s18.4,2.1,26,6.4c7.6,4.2,13.5,10.2,17.8,17.8,4.2,7.7,6.4,16.5,6.4,26.4s-.3,7.4-.7,10.5ZM857,296.6c-.1-7.8-2.9-14.1-8.4-18.9-5.5-4.7-12.3-7.1-20.4-7.1s-13.6,2.3-18.9,7c-5.2,4.7-8.3,11-9.3,19h57Z"/>
  <path class="st2" d="M899.6,277.9c4.3-8,10.2-14.2,17.6-18.6,7.4-4.4,15.7-6.6,24.8-6.6s15,1.6,21.2,4.9c6.2,3.2,10.9,7.2,14.3,11.8v-15h21.5v152h-21.5v-63.9c-3.4,4.6-8.2,8.5-14.6,11.8-6.4,3.2-13.6,4.9-21.7,4.9s-16.9-2.3-24.2-6.8c-7.3-4.5-13.1-10.9-17.4-19.1-4.3-8.2-6.4-17.4-6.4-27.8s2.1-19.5,6.4-27.5ZM973,287.2c-2.9-5.2-6.8-9.2-11.5-12-4.7-2.7-9.8-4.1-15.3-4.1s-10.6,1.3-15.3,4c-4.7,2.7-8.6,6.6-11.5,11.8-2.9,5.2-4.4,11.3-4.4,18.4s1.5,13.3,4.4,18.7c2.9,5.4,6.8,9.4,11.6,12.2,4.8,2.8,9.9,4.2,15.2,4.2s10.6-1.4,15.3-4.1c4.7-2.7,8.6-6.8,11.5-12.1,2.9-5.3,4.4-11.5,4.4-18.6s-1.5-13.3-4.4-18.5Z"/>
  <path class="st2" d="M1120.2,254.3v103h-21.3v-12.1c-3.4,4.2-7.8,7.6-13.2,10-5.4,2.4-11.2,3.6-17.3,3.6s-15.4-1.7-21.8-5-11.5-8.3-15.1-15c-3.7-6.6-5.5-14.6-5.5-23.9v-60.6h21.1v57.4c0,9.2,2.3,16.3,6.9,21.2,4.6,4.9,10.9,7.4,18.9,7.4s14.3-2.5,19-7.4c4.7-4.9,7-12,7-21.2v-57.4h21.3Z"/>
  <path class="st2" d="M1241.9,313.8h-78.7c.6,8.2,3.7,14.8,9.2,19.8,5.5,5,12.2,7.5,20.2,7.5,11.5,0,19.6-4.8,24.3-14.4h23c-3.1,9.5-8.8,17.2-16.9,23.3-8.2,6-18.3,9.1-30.4,9.1s-18.7-2.2-26.4-6.6c-7.8-4.4-13.9-10.7-18.3-18.7-4.4-8-6.6-17.4-6.6-27.9s2.1-19.9,6.4-27.9c4.3-8,10.3-14.2,18.1-18.6,7.8-4.4,16.7-6.5,26.8-6.5s18.4,2.1,26,6.4c7.6,4.2,13.5,10.2,17.8,17.8,4.2,7.7,6.4,16.5,6.4,26.4s-.3,7.4-.7,10.5ZM1220.4,296.6c-.1-7.8-2.9-14.1-8.4-18.9-5.5-4.7-12.3-7.1-20.4-7.1s-13.6,2.3-18.9,7c-5.2,4.7-8.3,11-9.3,19h57Z"/>
  <path class="st2" d="M1279.2,354.6c-6.4-2.9-11.5-6.9-15.2-12-3.7-5-5.7-10.7-6-16.9h22.1c.4,4.4,2.5,8,6.3,10.9,3.8,2.9,8.6,4.4,14.3,4.4s10.6-1.2,13.9-3.5c3.3-2.3,5-5.3,5-8.9s-1.8-6.7-5.5-8.6c-3.7-1.9-9.5-3.9-17.5-6.2-7.7-2.1-14-4.2-18.9-6.2-4.9-2-9.1-5-12.6-9.2s-5.3-9.5-5.3-16.3,1.6-10.5,4.9-15c3.2-4.5,7.9-8.1,13.9-10.7,6-2.6,13-3.9,20.8-3.9,11.7,0,21.1,3,28.3,8.9,7.2,5.9,11,14,11.5,24.2h-21.3c-.4-4.6-2.2-8.3-5.6-11-3.4-2.7-7.9-4.1-13.6-4.1s-9.9,1.1-12.9,3.2c-3,2.1-4.5,4.9-4.5,8.4s1,5,3,6.9c2,1.9,4.4,3.3,7.3,4.4,2.9,1.1,7.1,2.4,12.7,4,7.5,2,13.6,4,18.4,6.1,4.8,2.1,8.9,5.1,12.4,9.1,3.5,4,5.3,9.3,5.4,15.9,0,5.9-1.6,11.1-4.9,15.7-3.2,4.6-7.8,8.2-13.7,10.8-5.9,2.6-12.9,3.9-20.8,3.9s-15.4-1.5-21.8-4.4Z"/>
  <path class="st2" d="M1388.2,271.7v57c0,3.9.9,6.6,2.7,8.3,1.8,1.7,4.9,2.5,9.2,2.5h13.1v17.8h-16.8c-9.6,0-16.9-2.2-22.1-6.7-5.1-4.5-7.7-11.8-7.7-21.9v-57h-12.1v-17.4h12.1v-25.6h21.5v25.6h25v17.4h-25Z"/>
  <path class="st2" d="M903.3,556.6l-29.9-52h-16.3v52h-21.3v-129.9h44.9c10,0,18.4,1.7,25.3,5.2,6.9,3.5,12.1,8.2,15.5,14,3.4,5.9,5.1,12.4,5.1,19.6s-2.5,16.2-7.4,23.1c-4.9,6.9-12.5,11.6-22.7,14.1l32.1,53.8h-25.4ZM857.2,487.7h23.5c8,0,14-2,18-6,4-4,6.1-9.3,6.1-16.1s-2-12-6-15.8c-4-3.8-10-5.7-18.1-5.7h-23.5v43.6Z"/>
  <path class="st2" d="M955.1,436.1c-2.6-2.6-3.9-5.9-3.9-9.7s1.3-7.1,3.9-9.7c2.6-2.6,5.9-3.9,9.7-3.9s6.9,1.3,9.5,3.9c2.6,2.6,3.9,5.9,3.9,9.7s-1.3,7.1-3.9,9.7-5.8,3.9-9.5,3.9-7.1-1.3-9.7-3.9ZM975.3,453.7v103h-21.3v-103h21.3Z"/>
  <path class="st2" d="M1002.7,477.2c4.3-8,10.2-14.2,17.6-18.6,7.4-4.4,15.7-6.6,24.8-6.6s13.4,1.5,19.9,4.4c6.5,2.9,11.7,6.8,15.6,11.7v-49.7h21.5v138.3h-21.5v-15.5c-3.5,5-8.3,9.1-14.5,12.3-6.2,3.2-13.2,4.9-21.2,4.9s-17.2-2.3-24.6-6.8c-7.4-4.5-13.3-10.9-17.6-19.1-4.3-8.2-6.4-17.4-6.4-27.8s2.1-19.5,6.4-27.5ZM1076.1,486.6c-2.9-5.2-6.8-9.2-11.5-12-4.7-2.7-9.8-4.1-15.3-4.1s-10.6,1.3-15.3,4c-4.7,2.7-8.6,6.6-11.5,11.8-2.9,5.2-4.4,11.3-4.4,18.4s1.5,13.3,4.4,18.7c2.9,5.4,6.8,9.4,11.6,12.2,4.8,2.8,9.9,4.2,15.2,4.2s10.6-1.4,15.3-4.1c4.7-2.7,8.6-6.8,11.5-12.1,2.9-5.3,4.4-11.5,4.4-18.6s-1.5-13.3-4.4-18.5Z"/>
  <path class="st2" d="M1223.7,513.1h-78.7c.6,8.2,3.7,14.8,9.2,19.8,5.5,5,12.2,7.5,20.2,7.5,11.5,0,19.6-4.8,24.3-14.4h23c-3.1,9.5-8.8,17.2-16.9,23.3-8.2,6-18.3,9.1-30.4,9.1s-18.7-2.2-26.4-6.6c-7.8-4.4-13.9-10.7-18.3-18.7-4.4-8-6.6-17.4-6.6-27.9s2.1-19.9,6.4-27.9c4.3-8,10.3-14.2,18.1-18.6,7.8-4.4,16.7-6.5,26.8-6.5s18.4,2.1,26,6.4c7.6,4.2,13.5,10.2,17.8,17.8,4.2,7.7,6.4,16.5,6.4,26.4s-.3,7.4-.7,10.5ZM1202.2,495.9c-.1-7.8-2.9-14.1-8.4-18.9-5.5-4.7-12.3-7.1-20.4-7.1s-13.6,2.3-18.9,7c-5.2,4.7-8.3,11-9.3,19h57Z"/>
  <path class="st2" d="M716.3,449.6c-32.7-3.1-51.7,18.6-52.3,19.6l17.8,11.9c.4-.6,10-14,29.6-12.1,11.6,1.1,17,7.6,18.7,24.4-8.1-1.2-62.4-8-68.7,24.5-6.7,34.4,36.6,54.8,69.3,22.3v14.1h21.4v-47.1c0-16.7,3-53.9-35.7-57.6ZM683.4,524.4c-2.6-21.7,35.3-17.6,47.2-15.8v17.7c-14.8,14.3-44.5,20-47.2-1.9Z"/>
</svg>